<?xml version="1.0" encoding="UTF-8"?><svg id="Calque_1" xmlns="http://www.w3.org/2000/svg" viewBox="0 0 391.42 116.1"><polygon points="30.72 8.07 16.93 10.45 12.68 18.28 6.72 51.47 9.55 50.11 10.97 42.79 12.5 33.94 13.36 30.86 21.02 29.77 42.52 30.3 42.52 39.05 42.76 49.69 9.27 58.71 8.38 54.96 8.04 52.45 5.87 52.58 4.8 57.3 2.97 59.98 .68 73.01 2.63 88.5 1.27 93.01 1.95 98.88 21.27 99.56 27.4 100.67 30.38 108.75 42.02 115.3 56.33 109.18 60.42 99.9 237.82 100.54 240.08 101.81 246.55 112.2 257.19 114.98 264.5 112.33 273.22 100.64 281.8 100.71 291.41 113.67 304.91 113.7 316.43 101 358.72 100.07 378.87 88.03 389.27 85.73 390.25 1.5 79.95 1.5 77.74 1.5 77.19 72.18 72.33 71.67 71.78 5.75 30.72 8.07" style="fill:#aa011f;"/><path d="M76.92.3c0,.3,0,16.4.1,35.7.1,35,.1,35.3-1.9,35.3-2.1,0-2.1-.3-2.1-33.6V4l-7.2.6c-4,.4-16.1,1.1-26.8,1.7-10.7.7-20.4,1.6-21.6,2.2-1.1.5-2.8,2.2-3.6,3.6-2,3.3-6.3,22.4-7.9,34.9-.8,6.1-1.7,9.3-2.5,9.3-2.9,0-4.7,22.1-2.3,29,.9,2.5.9,3.4-.1,4-1.3.8-1,9.3.3,10.7.3.3,6,.5,12.7.4,10.8-.2,12.1,0,12.6,1.6,2.6,8.4,7.7,13.2,14.8,14,7.9.9,16.5-4.9,18.5-12.5.5-1.6,1.4-2.7,2.4-2.6.9,0,41,.1,89,.2l87.2.2,2.5,5.3c3.4,7.1,8.3,9.9,16.2,9.4,7.1-.4,11.8-3.7,14.4-10.2,1.8-4.3,2.1-4.5,5.9-4.5,3.8.1,4.1.3,6.3,5,4,8.6,12.9,12,21.4,8.2,4.6-2,9.3-7.1,10-10.7.3-1.9,1.3-2,22.3-2.5l22-.5,9.4-6c7.8-4.9,10.6-6.2,16-7,4.2-.6,6.6-1.5,6.5-2.3-.1-.6-.2-20.1-.2-43.2l-.2-42L234.02.1C147.62-.1,77.02,0,76.92.3ZM388.82,43.2c.1,22.3-.1,40.8-.6,41.3-.4.4-3,1.1-5.7,1.4-3.7.5-7.5,2.3-14.5,6.8l-9.5,6.1-21.7.5-21.7.5-3.8,5.4c-7.8,11.1-18.8,10.5-25.8-1.4l-2.6-4.6-5.6.3c-5.3.3-5.7.5-7.5,3.9-3,5.8-7.1,9.1-12.1,9.6-6.7.8-11.6-2.3-15.6-9.9-1.5-2.6-2.6-3.4-5.7-3.9-2.2-.3-43-.5-90.9-.5l-86.9.1-.7,3.3c-1.3,6.4-7.8,11.2-15.1,11.2-6.2,0-12-4.4-13.3-10.2-.4-1.5-1.2-3.1-1.9-3.7s-6.3-1.2-12.6-1.3l-11.4-.3-.7-3c-.5-1.6-.4-3.2,0-3.5,1.3-.7,1.7-4.3.7-5.8-1-1.6-1.2-18.4-.2-23.4.3-2,1.3-3.8,2.1-4.1.7-.3,1.5-1.8,1.8-3.4.3-2.3.4-2.2.6.9.1,4.8.2,4.8,17.6.2,19.5-5,18.1-4.2,18.9-11.3.8-6.9,0-12.5-1.9-14.1-2-1.7-11.2-2.3-20.9-1.5-10.1.8-9.7.4-11.7,12.8-.6,4.2-1.4,7.5-1.6,7.3-.7-.7,2.4-18,4.9-27.4,3.2-12.4.4-11.5,43.5-13.8l14.3-.7.2,32.9.3,32.9h7l.3-35.3.2-35.2,154.8.2,154.7.3.3,40.4ZM41.32,32c.4.2.7,4.1.7,8.7v8.3l-15.9,4.1c-8.7,2.3-16.1,4.2-16.4,4.2s-.2-1.5.3-3.3c.5-1.7,1.6-7.6,2.5-12.9l1.7-9.7,7.7-.4c7.7-.4,18,.1,19.4,1Z"/></svg>