<?xml version="1.0" encoding="UTF-8"?><svg id="Calque_1" xmlns="http://www.w3.org/2000/svg" viewBox="0 0 388.17 147.67"><path d="M375.85,71.29l2.17-25.66-38.74-32.36-1.85-5.3-61.21-5.94-64.21.51-42.77,5.49-29.36,16.09.7,3.41,12.7-5.32,19.53-7.91,25.91-4.53,32.81.13,1.4,1.15-6.13,32.11-7.09,1.02-85.79,7.4-1.15-1.15-1.91-15.77,9.26-8.36-.96-3.13-31.02,15.96-12.19,7.09-63.83,16.47-15.51,8.3-12.64,14.11-1.98,26.49,4.62,6.68,16.32,5.02,1.62.77.6,4.68,13.66,2.6,4.72,4.3,1.32,1.4,12.87,8.38,12.26.77,16.21-6.89,12.13-13.15,161.62,1.15,41.17,1.15,12.57,10.85,12.96,4.85,19.91-4.53,11.68-15.32,3.06-9,15.51-7.6,6.06-4.98,3.7-22.79-10.72-8.62ZM314.81,22.72l-23.36,13.02-18.64,3.57-19.28-1.63-3.83-3.99,1.55-17.02,3.94-5.94,7.79-2.06,42,3.83,11.49,5.62-1.66,4.6Z" style="fill:#00b49c;"/><path d="M225.47.32c-21.6,1.4-36,2.7-45,4-10.4,1.5-10.7,1.6-37,15.1-14.6,7.4-31.7,16.4-38,19.9-10.8,5.9-12.6,6.6-29.5,10.3-41.6,9.4-54.6,14.3-65.3,24.9-7.5,7.3-9.7,13.6-9.5,26.7.1,4.9-.3,9.5-.8,10.2-.8.9-.3,2.2,1.6,4.7,2.9,3.9,2.7,3.7,13.7,6.1l7.7,1.7.3,3.6.3,3.7,7.5.3q7.5.4,10.5,4.5c1.8,2.4,5.5,5.4,9.4,7.5,5.4,3,7.7,3.6,14.1,4,6.8.4,8.5.1,13.3-2.1,6.2-2.8,12.6-8.2,16.7-14.1l2.7-4.1,56.4.6c31,.4,76.4.7,100.9.8l44.6.1,3.7,4.4c7.6,9.1,19.3,13.5,30.8,11.6,13.1-2.2,22-10.3,25.6-23.1,1.4-5.1,1.9-5.8,4.7-6.3,1.7-.4,4.9-1.9,7.1-3.4s5.4-3.1,7-3.7c4.2-1.4,6.3-6.3,7.9-18.5l1.3-10.3-5.4-4.1c-5.3-4-5.4-4.2-4.9-8.1.3-2.2.8-8.1,1.1-13l.6-9-19.6-16c-10.8-8.8-19.9-16.4-20.2-16.8-.2-.4.6-1.6,1.9-2.7,2.9-2.3,2.8-2.4-12.6-4.5C304.97,1.92,244.67-.98,225.47.32ZM287.47,4.02c1.4.3,7,.9,12.5,1.2,12.7.8,17.9,1.3,28.5,2.8,7.4,1.1,8.5,1.6,9,3.5.7,2.9,4.1,6.4,13.2,13.8,4,3.2,10.5,8.5,14.3,11.8,3.9,3.2,8,6.7,9.2,7.7,2.2,1.8,2.3,2.3,1.7,14.7l-.7,12.8,4.8,3.9,4.7,3.9-.6,8.6c-1.1,13.5-3.3,16.3-18.8,23.6-5.4,2.5-5.8,2.9-7.7,8.7-4.2,12.2-11.8,19-23.5,20.8-10.3,1.7-18-1.1-27.8-10l-5.4-4.9-29-.6c-15.9-.3-61.4-.8-101.2-1.2l-72.3-.7-7.2,7.7c-7.6,8.3-12.5,11.2-20.9,12.5-8.8,1.4-17.3-1.7-25-9-6.5-6.2-7.8-6.9-13.4-6.9-5,0-5.3-.2-5.9-2.9-.7-3.4-4.2-5.3-12.6-7-8.9-1.8-9.1-2.1-9.4-14.1-.6-19.9,4.7-28.8,22.6-37.7,8.5-4.3,29.8-10.4,52.9-15.3,13.2-2.7,17.9-4.4,25.7-9.1,9.2-5.5,34.3-18.1,34.3-17.2,0,.4-1.7,1.7-3.7,2.8-5.2,2.8-6.5,5.7-5.8,12.9.4,3.3,1.3,7.2,2.1,8.8,1.7,3.4,2.3,3.4,24.4,1.4,8.5-.8,18.9-1.7,23-2,4.1-.4,9.3-.8,11.5-1.1,2.2-.2,6.9-.7,10.5-1,3.6-.2,10.1-.7,14.5-1.1,8.8-.7,10.9-1.4,12.6-4.6,1.4-2.6,5.5-26.5,5.1-29.6-.6-3.9-4.1-4.5-23.7-3.7-22.4.8-35.3,3.2-49,9-12.5,5.3-20.5,8.3-20.5,7.7,0-.4,6.7-4.2,15-8.5l15-7.7,15.2-1.9c8.4-1.1,19.4-2.4,24.3-2.9,9.5-.9,73.3-.8,77.5.1ZM230.37,19.42c-.9,4.9-2.2,12.1-2.9,16l-1.2,7.3h-3.3c-3.6,0-78.5,6.6-85.2,7.5l-4.3.6v-3.5c0-1.9-.5-4.7-1-6.2-.7-1.9-.7-3.7,0-5.9,1-3,2.3-3.8,14.1-9,29.7-12.9,39.3-15.1,70.5-15.4l15-.1-1.7,8.7Z"/><path d="M256.57,9.02c-4.3,2.2-6.3,6-7.4,14.5-1.2,8.9-.3,12.7,3.6,15.2,3.1,1.9,22.1,2.6,30,1,12-2.5,30.3-12.5,33.3-18.2,1.4-2.7,1.4-3.1-.3-5-2.7-3-5.3-3.8-19.9-6.3-3.6-.6-29.5-2.5-33.9-2.5-1.6,0-4.1.6-5.4,1.3ZM281.97,11.72c15.8,1.3,28.2,3.5,31.3,5.6l2.6,1.7-4.1,3.6c-5.7,5.1-18.7,11.8-26.4,13.6-7.2,1.7-27.4,2-31.3.5-2.4-.9-2.6-1.5-2.6-6.3,0-8.5,1.7-16,4.1-18,2.5-2,8.4-2.2,26.4-.7Z"/></svg>