<?xml version="1.0" encoding="UTF-8"?><svg id="Calque_1" xmlns="http://www.w3.org/2000/svg" viewBox="0 0 375.65 158.13"><path d="M371.66,115.3v-51.91l-6.81-46.81-5.11-12.26-17.19-2.72-202.55,1.87-24.51,6.3-44.26,30.47-13.65,12.01-9.59,2.29L5.37,76.06l.94,13.02L.94,110.1l4,19.4,11.91,4.85,33.02,4.26,4.77,7.74,13.87,9.11,10.47,1.53,17.7-8.85,6.81-13.45,173.79-1.96.51,2.98,7.23,13.45,13.45,7.15,13.96-1.31,12.34-9.08,5.87-14.21,40.85-5.19,2.72-8.17-2.55-3.06ZM160.98,42.7l-8.94,10.21-14.04,4.72-74.39,8.34-2.07-1.57,33.06-31.53,23.49-15.06,22.21-5.74h23.01l1.5,4.34-3.83,26.3Z" style="fill:#fe8f2b;"/><path d="M212.23.82c-74.9.9-80.7,1.2-92.8,5.8-10.5,3.9-40.4,24.7-57.3,39.7-5.9,5.2-7.7,6.3-10.7,6.3-2.4,0-10.1,3.3-25.7,11l-22.2,11.1.7,8.2c.6,7.2.3,9.2-2,16.6-2.9,9-2.9,13.1-.4,24.8,1.2,5.6,1.7,6.3,4.9,7.7,8.8,3.8,21.8,6.8,32.3,7.3l10.8.6,1.9,3.6c5.2,10.2,18.3,16.5,29.4,14.1,11-2.3,19.2-9.2,21.6-17.9l1-3.9,49.8-.7c27.3-.3,66.1-.7,86.1-.8l36.3-.2,1.6,4.8c1.9,6,8.8,13.8,14.5,16.6,5.3,2.6,14.4,2.8,21.2.5,7.2-2.5,13.8-9.4,16.1-16.9,1-3.3,1.9-6.1,2-6.3s9.2-1.1,20.3-2.1,20.6-2.2,21.1-2.7,1.5-3,2.1-5.6c1.2-4.2,1.1-4.9-.4-6-1.5-1.2-1.5-2.7-.6-15.3,2.1-28.8-4-80.9-11-94.5C359.63.42,357.73.12,318.23.02c-19.2-.1-66.9.3-106,.8ZM355.03,4.42c5.3,2.3,5.8,3.2,8.5,13.2,2.7,10.2,5.7,30.9,7.2,49,.8,10.5.5,37.5-.5,43.1-.3,1.8.1,4.5,1.1,6.5,1.4,2.8,1.4,3.9.4,6.4-1.4,3.4-.9,3.3-23.4,5.5-8.7.9-16.7,2-17.7,2.6-1,.5-2.3,2.7-2.9,4.8-3,11.3-13,19.1-24.5,19.1-3.7,0-7.6-.8-10-1.9-5.2-2.3-11.1-8.9-12.6-14-2.3-7.8-1.5-7.6-33.8-7.6-35.9.1-137,1.5-139.6,2-1.1.2-2.6.4-3.2.4-.7.1-2.7,2.9-4.4,6.3-3.6,7.2-6.5,10.1-12.9,13-10.8,4.9-23.5,1.4-30.8-8.5-2.2-2.8-4.5-5.7-5.3-6.3s-6.1-1.4-11.9-1.7-12.5-1.2-15-1.9c-2.5-.8-7-2.2-10.1-3.2-6.8-2-7.5-2.7-9.4-10-2.1-8-1.9-12.9,1.1-22.1,2.1-6.5,2.5-9.2,2.1-14.7-.7-8.1-1-7.8,14.3-15.3,6.3-3.1,12.2-6,13-6.5,4.9-3,13-6.4,16-6.8,3.6-.4,11.4-4.5,12.8-6.6,2.6-4.2,43.2-33.6,52.2-37.8,13.5-6.4,16.2-6.6,85.5-7.3,34.1-.4,62.1-.7,62.2-.8s19.7-.4,43.6-.6c41.7-.3,43.6-.2,48,1.7Z"/><path d="M141.23,10.72c-23,2.2-42.4,13.9-72.2,43.6-15,14.9-14,15.1,42.7,7.8,1.9-.2,7.1-.9,11.5-1.5s11.4-1.5,15.5-2c8.7-1.2,15.5-5.1,21.2-12.2,3.3-4,3.6-5,4.8-15.8.7-6.3,1.4-12.2,1.5-13s-.4-2.7-1.1-4.2c-2.1-4-5.7-4.4-23.9-2.7ZM163.23,13.62c.3.5-.2,6.9-1,14.2-1.8,15-2.3,16-10.8,22.7-6.3,4.9-1.8,4.1-59.7,11.1-14,1.7-26.3,3.3-27.2,3.6-1,.3-1.8.2-1.8-.3,0-.4,5.5-6,12.2-12.3,29-27.5,44.1-36.5,64.8-38.9,10.6-1.2,22.8-1.3,23.5-.1Z"/></svg>