<svg xmlns="http://www.w3.org/2000/svg" width="86.878" height="40.923" viewBox="0 0 86.878 40.923">
  <g id="camion-orange" transform="translate(1 0.999)">
    <path id="Tracé_504" data-name="Tracé 504" d="M35.923,6.324l-55.9.456a36.1,36.1,0,0,0-3.036,2.827c-.1.314,0,30.569,0,30.569h5.549v2.408l4.711,3.036,4.711-3.036.733-2.408H-.823L.538,44.259,4.2,45.62l4.292-2.408.524-3.036H46.392l.733,3.036,4.711,2.408,4.4-3.036.733-2.408h4.4V28.346l-1.675-2.722H54.139L43.984,12.433h-4.92V9.606Z" transform="translate(23.203 -6.324)" fill="#fe8f2b"/>
    <path id="Tracé_20" data-name="Tracé 20" d="M15.23,35.646m-5.021,0a5.021,5.021,0,1,0,5.021-5.021,5.021,5.021,0,0,0-5.021,5.021" transform="translate(12.096 -1.744)" fill="none" stroke="#8b480c" stroke-linecap="round" stroke-linejoin="round" stroke-width="2"/>
    <path id="Tracé_21" data-name="Tracé 21" d="M35.646,35.646m-5.021,0a5.021,5.021,0,1,0,5.021-5.021,5.021,5.021,0,0,0-5.021,5.021" transform="translate(39.189 -1.744)" fill="none" stroke="#8b480c" stroke-linecap="round" stroke-linejoin="round" stroke-width="2"/>
    <path id="Tracé_507" data-name="Tracé 507" d="M21.7,23.539V11.5l2.6-.942h2.513l9.945,12.981Z" transform="translate(40.575 -4.681)" fill="#fff"/>
    <path id="Tracé_22" data-name="Tracé 22" d="M30.747,39.4s-.123-13.964,0-27.154h5.021L45.811,24.8h2.511a5.021,5.021,0,0,1,5.021,5.021V39.867H48.321m-10.043,0H.9M31.19,24.8H45.811M30.747,12.25" transform="translate(31.535 -5.964)" fill="none" stroke="#8b480c" stroke-linecap="round" stroke-linejoin="round" stroke-width="2"/>
    <path id="Tracé_500" data-name="Tracé 500" d="M15.23,35.646m-5.021,0a5.021,5.021,0,1,0,5.021-5.021,5.021,5.021,0,0,0-5.021,5.021" transform="translate(-4.561 -1.744)" fill="none" stroke="#8b480c" stroke-linecap="round" stroke-linejoin="round" stroke-width="2"/>
    <path id="Tracé_501" data-name="Tracé 501" d="M-14.618,44.208V16.554c.128-5.994,5.275-5.723,6.148-5.725H42.7c5.29,0,4.956,5.725,4.956,5.725" transform="translate(14.618 -10.828)" fill="none" stroke="#8b480c" stroke-linecap="round" stroke-width="2"/>
    <line id="Ligne_151" data-name="Ligne 151" x2="6.941" transform="translate(15.78 33.821)" fill="none" stroke="#8b480c" stroke-width="2"/>
    <line id="Ligne_152" data-name="Ligne 152" x2="4.164" transform="translate(0.511 33.821)" fill="none" stroke="#8b480c" stroke-linecap="round" stroke-width="2"/>
  </g>
</svg>
